<?xml version="1.0" encoding="UTF-8"?>
<svg id="Layer_1" xmlns="http://www.w3.org/2000/svg" viewBox="0 0 200 200">
  <defs>
    <style>
      .cls-1, .cls-2 {
        fill: #e62a2d;
      }

      .cls-3 {
        fill: #284060;
      }

      .cls-3, .cls-2 {
        fill-rule: evenodd;
      }
    </style>
  </defs>
  <path class="cls-3" d="M68.59,134.35l-5.45,9.37s-1.33,1.88-1.69,5.45c-.36,3.58,2.06,5.9,2.06,5.9,0,0-.57,3.42-.12,5.92,1.05,5.95,7.49,4.73,7.49,4.73,0,0-1.76-1.49-2.06-3.01-.3-1.51,1.88-4.1,1.88-4.1l9.43-12.57c.23.29.45.58.67.88h0c.6.8,1.18,1.62,1.74,2.45,1.04,1.55,2.01,3.16,2.92,4.81,3.08-9.93,7.89-20.91,15.32-28.77,10.69-11.33,27.52-23.46,38.45-38.18h.04c6.64-8.94,11.09-18.84,10.66-30.1-.13-3.52-.72-6.79-1.65-9.82-.46-1.07-1.15-2.63-1.72-3.55-.66-1.08-1.38-1.99-1.97-2.68.54,2.72.82,5.53.82,8.4,0,3.66-.46,7.22-1.32,10.63-1.78,10.06-7.33,18.99-14.37,27.13h-.04c-9.14,10.57-20.76,19.82-29.81,28.48l-2.11,2.11v-.05c-.78.78-1.54,1.55-2.27,2.33-4.18,4.43-7.54,9.85-10.22,15.52l-.33-.35c-16.87-17.87-49.04-37.75-49.14-66.64-1.23.94-3.17,2.86-4.87,6.51-2.07,4.45-1.63,9.24-1.32,11.19,5.19,19.39,24.16,34.52,38.98,48.02ZM65.89,152.7c-.19-.03-.36-.11-.51-.23.58-.24,1.08-.95,1.24-1.83s-.07-1.7-.53-2.09c.18-.08.37-.11.56-.08.78.11,1.24,1.15,1.03,2.32-.21,1.17-1.02,2.02-1.8,1.91ZM52,181.1s10.97,2.69,28.29-3.65c3.35-1.23,6.3-2.58,8.89-3.97-.73-2.14-1.54-4.31-2.45-6.47-3.41,2.79-7.23,5.4-11.21,7.17-13.35,5.95-23.53,6.91-23.53,6.91ZM162.72,162.1s-10.17-.96-23.52-6.91c-6.03-2.69-11.71-7.3-16.12-11.54-.77.76-1.51,1.53-2.23,2.29-1.07,1.14-2.09,2.33-3.05,3.58,3.82,2.92,9.26,6.24,16.63,8.94,17.32,6.33,28.29,3.65,28.29,3.65ZM164.64,174.18s-12.26-.96-28.35-6.91c-8.29-3.07-16.03-8.63-21.58-13.31-1.54,2.46-2.93,5.03-4.16,7.67,4.6,2.92,11.15,6.22,20,8.91,20.88,6.33,34.09,3.65,34.09,3.65ZM87.62,122.82c-17.87-16.99-45.26-36.25-44.23-63.4.11-2.92.48-5.56,1.07-7.97-1.06,1-2.77,2.92-4.32,6.04-1.1,2.21-1.92,3.84-2.03,7.24-.92,27.78,27.64,47.3,45.45,64.58,1.23-2.25,2.58-4.43,4.07-6.48ZM94.73,114.81c-15.99-15.1-39.22-32.03-43.22-54.7-.87-3.41-1.32-6.97-1.32-10.63,0-2.87.28-5.67.82-8.4-.6.69-1.31,1.61-1.98,2.68-.57.92-1.27,2.48-1.72,3.55-.93,3.03-1.52,6.3-1.66,9.82-1.03,27,26.06,46.2,43.93,63.12.69-.84,1.4-1.65,2.13-2.43.73-.77,1.48-1.54,2.27-2.33v.05l.74-.75ZM93.26,161.02c.62-1.96,1.31-3.95,2.07-5.95l.1-.26.05-.14.11-.28.18-.45.39-.97c2.95-7.23,6.91-14.38,12.18-19.97,12.47-13.21,33.31-27.52,43.36-45.76h-.02c3.8-6.89,6.08-14.35,5.81-22.51-.11-3.4-.92-5.02-2.03-7.24-1.56-3.12-3.27-5.04-4.32-6.04.59,2.41.95,5.04,1.06,7.97.39,10.31-3.31,19.48-9.04,27.82h-.04c-10.81,15.75-28.84,28.55-40.07,40.45-4.6,4.87-8.2,10.93-11,17.2-1.62,3.63-2.98,7.33-4.12,10.91l-.38,1.86.38,1.41c.83,1.79,1.6,3.61,2.3,5.42.4,1.03.78,2.06,1.14,3.09.55-2.11,1.17-4.32,1.88-6.57ZM97.8,195.96v-.28l-.02.14.02.15ZM97.8,195.68c.35-3.35,4.09-35.57,20.37-52.82,14.64-15.5,40.79-32.52,47.53-55.62h.04c.09-.3.17-.6.25-.91.31-1.95.75-6.74-1.32-11.19-1.7-3.65-3.64-5.58-4.87-6.51-.02,6.65-1.75,12.82-4.59,18.6h-.04c-9.51,19.33-31.56,34.28-44.55,48.04-5.67,6-9.82,13.82-12.83,21.6v.02s-.01.02-.01.02c-2.1,5.43-3.65,10.85-4.78,15.61,3.46,11.48,4.6,21.38,4.78,23.15v.13s.03-.14.03-.14ZM97.77,195.68v.28-.15s0-.13,0-.13Z"/>
  <g>
    <path class="cls-2" d="M103.21,55.82s-.03,0-.04,0c0,0,.02,0,.03,0,0,0,0,0,.01,0Z"/>
    <path class="cls-2" d="M101.46,45.62c0-1.97-1.6-3.56-3.56-3.56s-3.56,1.6-3.56,3.56,1.6,3.56,3.56,3.56,3.56-1.6,3.56-3.56Z"/>
    <path class="cls-2" d="M108.27,65.46s0,0,.01,0c-.01,0-.03,0-.04,0,0,0,.02,0,.03,0Z"/>
    <circle class="cls-1" cx="97.82" cy="99.8" r="1.72"/>
    <circle class="cls-1" cx="91.4" cy="84.62" r="1.72"/>
    <path class="cls-2" d="M92.63,55.81s-.03,0-.04,0c0,0,0,0,.01,0,0,0,.02,0,.03,0Z"/>
    <path class="cls-2" d="M87.53,65.46s.02,0,.03,0c-.01,0-.03,0-.04,0,0,0,0,0,.01,0Z"/>
    <path class="cls-2" d="M103.32,59.21s-.02.03-.03.04c-.01.01-.02.03-.03.04,0-.01.02-.03.03-.04.01-.01.02-.03.03-.04Z"/>
    <path class="cls-2" d="M97.8,4.04c-24.25.25-43.83,20.5-43.83,45.44,0,12.55,4.96,23.91,12.97,32.13l30.85,31.66,30.85-31.66c8.01-8.22,12.97-19.59,12.97-32.13,0-24.94-19.58-45.19-43.83-45.44ZM87.55,84.62c0-1.5.87-2.85,2.22-3.48v-19.97c-2.46-1.29-4.6-3.16-6.2-5.42-2.1-2.97-3.21-6.47-3.21-10.12,0-9.67,7.87-17.54,17.54-17.54s17.54,7.87,17.54,17.54c0,3.23-.89,6.39-2.58,9.15-1.66,2.72-4.02,4.93-6.83,6.4v10.24c1.35.63,2.22,1.99,2.22,3.48,0,2.12-1.73,3.85-3.85,3.85s-3.85-1.73-3.85-3.85c0-1.5.87-2.85,2.22-3.48v-11.26s0-.03,0-.04h0s0-.08,0-.11c0-.02,0-.05,0-.08h0s0-.06.01-.08c0-.03.01-.06.02-.1,0-.02,0-.04.01-.05,0-.03.02-.06.03-.1,0-.02.01-.03.02-.05.01-.03.02-.06.04-.09,0-.02.02-.04.03-.06.01-.03.03-.05.04-.07.01-.02.03-.04.04-.06.01-.02.03-.04.04-.06.02-.02.03-.05.05-.07.01-.02.03-.03.04-.05.02-.02.04-.05.06-.07.01-.01.02-.02.04-.04.02-.02.05-.05.07-.07.01-.01.03-.02.05-.04.02-.02.05-.04.08-.06.02-.01.04-.03.06-.04l.1.16-.09-.17s.04-.03.06-.04c.03-.02.06-.03.08-.04h.01s.02-.02.04-.02c5.13-2.3,8.45-7.42,8.45-13.04,0-7.88-6.41-14.29-14.29-14.29s-14.29,6.41-14.29,14.29c0,2.97.9,5.82,2.61,8.24,1.48,2.1,3.5,3.76,5.84,4.8.01,0,.03.01.04.02h.01s.01.01.01.01c.02,0,.04.02.06.03.03.02.05.03.08.05h.01s.03.02.04.03c.03.02.06.04.09.07h0s.02.03.02.03c.03.03.06.05.09.08,0,0,.02.01.02.02.03.03.05.06.08.09h0s.01.02.02.03c.02.03.04.06.07.09h0s.02.03.02.04c.02.03.04.06.05.08.01.02.02.04.03.05.01.03.03.05.04.08,0,.02.02.04.03.06.01.03.02.05.03.08,0,.02.02.04.02.07,0,.03.02.06.02.1,0,.02,0,.04.01.06,0,.04.01.07.02.11h0s0,.03,0,.04c0,.04,0,.09,0,.13v.02s0,0,0,0v.02h0v20.96c1.35.63,2.22,1.99,2.22,3.48,0,2.12-1.73,3.85-3.85,3.85s-3.85-1.73-3.85-3.85ZM88.95,64.83c-.29.51-.83.83-1.42.83-.28,0-.56-.07-.8-.21-7.13-4.03-11.55-11.61-11.55-19.79,0-12.53,10.19-22.72,22.72-22.72s22.72,10.19,22.72,22.72c0,8.18-4.43,15.76-11.55,19.79-.24.14-.52.21-.8.21-.59,0-1.13-.32-1.42-.83-.21-.38-.27-.82-.15-1.24s.39-.77.77-.98c6.11-3.45,9.9-9.95,9.9-16.95,0-10.73-8.73-19.46-19.46-19.46s-19.46,8.73-19.46,19.46c0,7.01,3.79,13.5,9.9,16.95.38.21.65.56.77.98s.06.86-.15,1.24ZM102.4,52.97c2.87-1.62,4.66-4.68,4.66-7.98,0-5.05-4.11-9.16-9.16-9.16s-9.16,4.11-9.16,9.16c0,3.3,1.78,6.35,4.66,7.98.38.21.65.56.77.98.12.42.06.86-.15,1.24-.29.51-.83.83-1.42.83-.28,0-.56-.07-.8-.21-3.89-2.2-6.31-6.34-6.31-10.81,0-6.84,5.57-12.41,12.41-12.41s12.41,5.57,12.41,12.41c0,4.47-2.42,8.61-6.31,10.81-.24.14-.52.21-.8.21-.59,0-1.13-.32-1.42-.83-.44-.78-.17-1.78.62-2.22ZM97.9,103.65c-2.12,0-3.85-1.73-3.85-3.85,0-1.5.87-2.85,2.22-3.48v-44.08c-3.02-.74-5.19-3.5-5.19-6.62,0-3.76,3.06-6.82,6.82-6.82s6.82,3.06,6.82,6.82c0,3.12-2.17,5.88-5.19,6.62v44.08c1.35.63,2.22,1.99,2.22,3.48,0,2.12-1.73,3.85-3.85,3.85ZM122.35,59.41c-2.35,4.17-5.75,7.69-9.82,10.18v11.28c0,.43-.17.84-.48,1.15l-4.04,4.04c.15.42.23.86.23,1.31,0,2.12-1.73,3.85-3.85,3.85s-3.85-1.73-3.85-3.85,1.73-3.85,3.85-3.85c.45,0,.89.08,1.31.23l3.56-3.56v-11.54s0-.02,0-.03h0s0-.08,0-.11c0-.02,0-.04,0-.06v-.02s0-.01,0-.01c0-.02,0-.05.01-.07,0-.03.01-.06.02-.09h0s0-.05.01-.06c0-.03.02-.06.03-.09h0s.01-.04.02-.06c.01-.03.02-.05.04-.08,0-.02.02-.04.03-.06.01-.02.03-.05.04-.07.01-.02.03-.05.04-.07.01-.02.03-.04.04-.06.02-.02.04-.05.05-.07.01-.01.02-.03.04-.05.02-.02.04-.05.06-.07.01-.01.03-.03.05-.04.02-.02.04-.04.07-.06.02-.01.03-.03.05-.04h0s.01-.02.01-.02c.02-.01.03-.03.05-.04.03-.02.06-.04.09-.05h0s.02-.02.03-.03c7.79-4.4,12.63-12.69,12.63-21.63,0-13.69-11.14-24.83-24.83-24.83s-24.83,11.14-24.83,24.83c0,8.94,4.84,17.22,12.63,21.63.01,0,.02.01.03.02h0s.06.04.08.06c.02.01.04.03.05.04h.01s.04.04.06.05c.02.02.04.04.07.06h0s.03.03.04.05c.02.02.04.05.06.07h0s.02.03.03.05c.02.02.04.05.05.07.01.02.03.04.04.06.01.02.03.05.04.07.01.02.03.05.04.07.01.02.02.04.03.06.01.03.02.05.04.08,0,.02.01.04.02.06.01.03.02.06.03.09,0,.02,0,.03.01.05v.02s.02.05.02.08c0,.02,0,.05.01.08v.02s0,.04,0,.06c0,.03,0,.07,0,.11,0,.01,0,.02,0,.04v.02s0,.01,0,.01h0v5.89c1.35.63,2.22,1.99,2.22,3.48,0,2.12-1.73,3.85-3.85,3.85s-3.85-1.73-3.85-3.85c0-1.5.87-2.85,2.22-3.48v-5c-4.07-2.49-7.47-6.01-9.82-10.18-2.38-4.21-3.63-8.98-3.63-13.8,0-15.49,12.6-28.08,28.08-28.08s28.08,12.6,28.08,28.08c0,4.82-1.26,9.59-3.63,13.8Z"/>
    <path class="cls-2" d="M109.96,67.58s.01-.01.02-.02c.02-.01.04-.03.05-.04-.02.01-.04.03-.05.04,0,0-.01.01-.02.02Z"/>
    <path class="cls-2" d="M104.31,85.68c-.95,0-1.72.77-1.72,1.72s.77,1.72,1.72,1.72,1.72-.77,1.72-1.72-.77-1.72-1.72-1.72Z"/>
    <path class="cls-2" d="M104.4,73.17c-.95,0-1.72.77-1.72,1.72s.77,1.72,1.72,1.72,1.72-.77,1.72-1.72-.77-1.72-1.72-1.72Z"/>
    <path class="cls-2" d="M84.9,79.79c.95,0,1.72-.77,1.72-1.72s-.77-1.72-1.72-1.72-1.72.77-1.72,1.72.77,1.72,1.72,1.72Z"/>
  </g>
</svg>